<svg xmlns="http://www.w3.org/2000/svg" width="24" height="24" viewBox="2.5 2.5 19 19">
  <defs>
    <mask id="wave-mask-4">
      <rect width="24" height="24" fill="white"/>
      <g transform="translate(-6, 13)">
        <path d="M -24 0 Q -18 -4, -12 0 T 0 0 T 12 0 T 24 0 T 36 0 T 48 0" fill="none" stroke="black" stroke-width="2.5" stroke-linecap="round"/>
      </g>
    </mask>
  </defs>
  <path d="M12 5c.67 0 1.35.09 2 .26 1.78-2 5.03-2.84 6.42-2.26 1.4.58-.42 7-.42 7 .57 1.07 1 2.24 1 3.44C21 17.9 16.97 21 12 21s-9-3-9-7.56c0-1.25.5-2.4 1-3.44 0 0-1.89-6.42-.5-7 1.39-.58 4.72.23 6.5 2.23A9.04 9.04 0 0 1 12 5Z" fill="currentColor" mask="url(#wave-mask-4)"/>
</svg>
